<svg xmlns="http://www.w3.org/2000/svg" width="24" height="24" viewBox="0 0 24 24"><g class="nc-icon-wrapper" fill="#111111"><path d="M23.344 3.168A1.65 1.65 0 0 0 21.9 2.9c-2.272.649-5.355 2.136-9.371-.333A10.343 10.343 0 0 0 4.053 1.5L3 1.882V1.5a1.5 1.5 0 0 0-3 0v21a1.5 1.5 0 0 0 3 0v-4c7.912-2.882 8.259 2 14.42 2 1.724 0 1.971-.294 5.383-1.269A1.655 1.655 0 0 0 24 17.644V4.485a1.657 1.657 0 0 0-.656-1.317zm-3.814 7.863l-3 3a.75.75 0 1 1-1.06-1.061l2.469-2.47-2.469-2.469a.75.75 0 1 1 1.06-1.061l3 3a.75.75 0 0 1 0 1.061zm-5.318-3.293l-2 6a.751.751 0 0 1-1.424-.475l2-6a.751.751 0 1 1 1.424.475zM9.53 12.97a.75.75 0 0 1-1.06 1.061l-3-3a.75.75 0 0 1 0-1.061l3-3a.75.75 0 0 1 1.06 1.061L7.06 10.5z"/></g></svg>