<svg xmlns="http://www.w3.org/2000/svg" width="24" height="24" viewBox="0 0 24 24"><g class="nc-icon-wrapper" fill="#111"><path d="M12 18.5a22.954 22.954 0 0 1-6.358-.849.5.5 0 0 0-.642.48v3.626a1 1 0 0 0 .429.822C6.045 23.007 7.916 24 12 24s5.955-.993 6.569-1.42a1 1 0 0 0 .431-.822v-3.626a.5.5 0 0 0-.642-.48A22.959 22.959 0 0 1 12 18.5z"/><path d="M2.5 1h-.25A.249.249 0 0 1 2 .751V.5a.5.5 0 0 0-1 0v.25A.249.249 0 0 1 .75 1H.5a.5.5 0 0 0 0 1h.25a.25.25 0 0 1 .25.25v.25a.5.5 0 0 0 1 0v-.25A.25.25 0 0 1 2.25 2h.25a.5.5 0 0 0 0-1z"/><path d="M21.5 5.5h-.25a.25.25 0 0 1-.25-.25V5a.5.5 0 0 0-1 0v.25a.25.25 0 0 1-.25.25h-.25a.5.5 0 0 0 0 1h.25a.25.25 0 0 1 .25.25V7a.5.5 0 1 0 1 0v-.25a.25.25 0 0 1 .25-.25h.25a.5.5 0 0 0 0-1z"/><path d="M11.5 7a1 1 0 0 1-.4-1.917l11.5-5a1 1 0 0 1 .8 1.834l-11.5 5a.988.988 0 0 1-.4.083z"/><path d="M12 9C6.477 9 2 10.792 2 13s4.477 4 10 4 10-1.791 10-4-4.477-4-10-4zm0 5.5c-3.722 0-6-.971-6-1.5s2.278-1.5 6-1.5 6 .971 6 1.5-2.278 1.5-6 1.5z"/><path d="M9.335 4.33l-1.18-.589a2 2 0 0 1-.894-.895l-.59-1.18a.781.781 0 0 0-1.342 0l-.59 1.18a2.008 2.008 0 0 1-.895.9l-1.18.589a.751.751 0 0 0 0 1.342l1.18.59a2 2 0 0 1 .9.894l.59 1.18a.75.75 0 0 0 1.342 0l.59-1.18a1.994 1.994 0 0 1 .894-.894l1.18-.59a.75.75 0 0 0 0-1.342z"/></g></svg>