<svg xmlns="http://www.w3.org/2000/svg" width="24" height="24" viewBox="0 0 24 24"><g class="nc-icon-wrapper" fill="#111111"><path d="M9.125 19.5a.5.5 0 0 0-.5-.5h-6a.5.5 0 0 1-.5-.5v-14a.5.5 0 0 1 .5-.5h9a.5.5 0 0 1 .5.5v6a1 1 0 0 0 2 0v-8a2.5 2.5 0 0 0-2.5-2.5h-9a2.5 2.5 0 0 0-2.5 2.5v19a2.5 2.5 0 0 0 2.5 2.5h6a.5.5 0 0 0 .5-.5z"/><path d="M7 15.75a.75.75 0 0 0 .75-.75v-.522a2.084 2.084 0 0 0 .56-4.011l-2.064-.826A.592.592 0 0 1 6.467 8.5H8.5a.75.75 0 0 0 0-1.5h-.75v-.5a.75.75 0 0 0-1.5 0v.522a2.085 2.085 0 0 0-.561 4.011l2.065.827A.591.591 0 0 1 7.533 13H5.5a.75.75 0 0 0 0 1.5h.75v.5a.75.75 0 0 0 .75.75z"/><path d="M23.875 15a1.752 1.752 0 0 0-1.75-1.75h-10a1.752 1.752 0 0 0-1.75 1.75v7a1.752 1.752 0 0 0 1.75 1.75h10a1.752 1.752 0 0 0 1.75-1.75zm-1.5 7a.25.25 0 0 1-.25.25h-10a.25.25 0 0 1-.25-.25v-3a.25.25 0 0 1 .25-.25h10a.25.25 0 0 1 .25.25zm-10.5-7a.251.251 0 0 1 .25-.25h10a.251.251 0 0 1 .25.25v1a.25.25 0 0 1-.25.25h-10a.25.25 0 0 1-.25-.25z"/><path d="M20.875 20.5a.75.75 0 0 0-.75-.75h-1.25a.75.75 0 0 0 0 1.5h1.25a.75.75 0 0 0 .75-.75z"/></g></svg>